# Blender 4.0.2
# www.blender.org
mtllib boid.mtl
o Icosphere
v 0.295604 -0.352730 0.064036
v 0.295604 -0.006653 -0.358434
v 0.000000 -0.076260 0.129563
v 0.000000 0.459676 -0.194589
v 0.384327 0.179690 0.147198
v 0.000000 0.401797 0.329143
v 0.000000 -0.340652 -0.298708
v 0.107429 -0.341836 -0.033310
v 0.361589 -0.211239 -0.173042
v 0.000000 -0.240081 -0.404146
v 0.000000 0.055040 -0.498101
v 0.413742 -0.101709 0.124160
v 0.413742 0.101709 -0.124160
v 0.000000 -0.329143 0.401797
v 0.225058 -0.266282 0.325060
v 0.225058 0.266282 -0.325060
v 0.000000 0.329143 -0.401797
v 0.237507 0.027598 0.430548
v 0.277208 0.375809 -0.027855
v 0.000000 0.177221 0.480883
v 0.192827 0.341789 0.279986
v 0.000000 0.506360 0.079090
v -0.295604 -0.352730 0.064036
v -0.295604 -0.006653 -0.358434
v -0.384327 0.179690 0.147198
v -0.361589 -0.211239 -0.173042
v -0.413742 -0.101709 0.124160
v -0.413742 0.101709 -0.124160
v -0.225058 -0.266282 0.325060
v -0.225058 0.266282 -0.325060
v -0.237507 0.027598 0.430548
v -0.277208 0.375809 -0.027855
v -0.192827 0.341789 0.279986
v 0.390017 -0.402633 -0.050033
v -0.390017 -0.402633 -0.050033
v 0.000000 -0.533310 0.238187
v 0.000000 -0.405455 0.299938
v -0.107429 -0.341836 -0.033310
v -0.099407 -0.376513 0.344053
v 0.099407 -0.376513 0.344053
v 0.152542 -0.467971 0.094077
v -0.152542 -0.467971 0.094077
v 0.000000 -0.604479 0.147759
v 0.183789 -0.519538 -0.050033
v -0.183789 -0.519538 -0.050033
v 0.000000 -0.574168 0.060936
v 0.000000 -0.485506 -0.042726
v -0.091894 -0.546853 0.005451
v 0.091894 -0.546853 0.005451
v -0.058071 -0.564005 -0.112209
v 0.058071 -0.564005 -0.112209
v -0.061848 -0.635399 -0.151422
v 0.061848 -0.635399 -0.151422
v 0.000000 -0.566823 -0.043636
v 0.000000 -0.676322 -0.151422
v 0.156138 -0.573426 -0.138584
v -0.156138 -0.573426 -0.138584
v 0.283104 -0.447877 -0.129359
v -0.283104 -0.447877 -0.129359
v 0.345537 -0.362066 -0.167979
v -0.345537 -0.362066 -0.167979
v 0.283104 -0.386698 -0.252594
v -0.283104 -0.386698 -0.252594
v 0.140015 -0.557393 -0.270432
v -0.140015 -0.557393 -0.270432
v 0.000000 -0.557393 -0.192199
v 0.140015 -0.376313 -0.349083
v -0.140015 -0.376313 -0.349083
vn 0.9050 -0.4254 -0.0020
vn 0.4541 0.2228 -0.8626
vn 0.8026 -0.4667 0.3715
vn 0.8026 0.2723 -0.5307
vn -0.3608 -0.7563 0.5457
vn 0.7240 0.6353 0.2687
vn 0.3597 0.8608 0.3600
vn 0.4851 0.8447 0.2263
vn 0.3709 0.9155 -0.1562
vn 0.3597 0.5224 0.7731
vn 0.4418 0.4380 0.7829
vn 0.7223 0.3797 0.5781
vn 0.8897 0.4553 -0.0344
vn 0.7947 0.5110 -0.3277
vn 0.4684 0.7992 -0.3767
vn -0.7338 -0.2018 0.6487
vn 0.7969 -0.2337 0.5570
vn 0.8750 0.0521 0.4813
vn 0.3857 0.7806 -0.4918
vn 0.3827 0.3062 -0.8716
vn 0.0274 0.7324 0.6803
vn -0.0331 -0.7999 0.5993
vn 0.1885 -0.9474 0.2584
vn 0.9921 0.0972 0.0796
vn 0.9822 -0.1451 -0.1189
vn 0.9050 -0.0857 -0.4167
vn 0.3608 -0.2829 -0.8887
vn 0.4971 -0.4891 -0.7167
vn 0.4464 -0.6475 -0.6176
vn 0.3114 -0.9469 -0.0804
vn -0.9050 -0.4254 -0.0020
vn -0.4541 0.2228 -0.8626
vn -0.8026 -0.4667 0.3715
vn -0.8026 0.2723 -0.5307
vn 0.3608 -0.7563 0.5457
vn -0.7240 0.6353 0.2687
vn -0.3597 0.8608 0.3600
vn -0.4851 0.8447 0.2263
vn -0.3709 0.9155 -0.1562
vn -0.3597 0.5224 0.7731
vn -0.4418 0.4380 0.7829
vn -0.7223 0.3797 0.5781
vn -0.8897 0.4553 -0.0344
vn -0.7947 0.5110 -0.3277
vn -0.4684 0.7992 -0.3767
vn 0.7338 -0.2018 0.6487
vn -0.7969 -0.2337 0.5570
vn -0.8750 0.0521 0.4813
vn -0.3857 0.7806 -0.4918
vn -0.3827 0.3062 -0.8716
vn -0.0274 0.7324 0.6803
vn 0.0331 -0.7999 0.5993
vn 0.1903 -0.9461 0.2619
vn -0.9921 0.0972 0.0796
vn -0.9822 -0.1451 -0.1189
vn -0.9050 -0.0857 -0.4167
vn -0.3608 -0.2829 -0.8887
vn -0.4971 -0.4891 -0.7167
vn -0.4464 -0.6475 -0.6176
vn -0.3114 -0.9469 -0.0804
vn -0.1885 -0.9474 0.2584
vn -0.1903 -0.9461 0.2619
vn -0.9503 -0.1355 0.2805
vn -0.1959 0.7306 0.6541
vn 0.9503 -0.1355 0.2805
vn 0.2774 0.7300 0.6246
vn -0.6537 -0.7547 -0.0555
vn 0.6537 -0.7547 -0.0555
vn -0.2774 0.7300 0.6246
vn 0.1959 0.7306 0.6541
vn -0.7817 0.4152 0.4654
vn 0.7817 0.4152 0.4654
vn 0.6774 -0.5781 0.4549
vn -0.6774 -0.5781 0.4549
vn -0.4550 -0.8026 0.3858
vn 0.4550 -0.8026 0.3858
vn -0.6883 -0.6228 0.3721
vn 0.6883 -0.6228 0.3721
vn 0.0814 -0.9410 -0.3285
vn -0.0814 -0.9410 -0.3285
vn -0.1643 -0.7496 -0.6411
vn 0.1643 -0.7496 -0.6411
vn 0.6313 -0.7207 0.2865
vn -0.6313 -0.7207 0.2865
vn -0.0000 -0.6628 0.7488
vn -0.3115 -0.9490 0.0488
vn 0.3115 -0.9490 0.0488
vn 0.7348 -0.2963 0.6101
vn -0.0000 0.9992 0.0410
vn -0.7348 -0.2963 0.6101
vn -0.0000 -0.8437 0.5368
vn 0.2486 -0.4764 0.8434
vn -0.2486 -0.4764 0.8434
vn -0.0000 -0.0000 1.0000
vn 0.4838 -0.8065 0.3397
vn -0.4838 -0.8065 0.3397
vn -0.4863 -0.8579 -0.1661
vn 0.4863 -0.8579 -0.1661
vn -0.6787 -0.7022 0.2154
vn 0.6787 -0.7022 0.2154
vn 0.6111 -0.6487 -0.4536
vn -0.6111 -0.6487 -0.4536
vn 0.6910 -0.6474 -0.3214
vn -0.6910 -0.6474 -0.3214
vn -0.6763 -0.6598 -0.3276
vn 0.6763 -0.6598 -0.3276
vn -0.5573 -0.8133 -0.1670
vn 0.5573 -0.8133 -0.1670
vn -0.5427 -0.8202 -0.1811
vn 0.5427 -0.8202 -0.1811
vn -0.7639 -0.6227 -0.1691
vn 0.7639 -0.6227 -0.1691
vn -0.4673 -0.2867 -0.8363
vn 0.4673 -0.2867 -0.8363
vn 0.5079 -0.3432 -0.7901
vn -0.5079 -0.3432 -0.7901
vn -0.9168 -0.1105 -0.3837
vn 0.9168 -0.1105 -0.3837
vn 0.8146 -0.1058 -0.5703
vn -0.8146 -0.1058 -0.5703
vn 0.2035 0.3273 -0.9227
vn 0.1852 0.9678 -0.1704
vn -0.2035 0.3273 -0.9227
vn -0.1852 0.9678 -0.1704
vn -0.3962 -0.3658 -0.8422
vn 0.3962 -0.3658 -0.8422
vn -0.4483 -0.3942 -0.8023
vn 0.4483 -0.3942 -0.8023
vn -0.3789 -0.2800 0.8820
vn 0.3789 -0.2800 0.8820
vt 0.125996 0.149438
vt 0.252668 0.178416
vt 0.150479 0.264154
vt 0.340917 0.255781
vt 0.475587 0.275645
vt 0.355822 0.356845
vt 0.022910 0.227789
vt 0.256085 0.306389
vt 0.504007 0.573162
vt 0.516495 0.713854
vt 0.382479 0.670651
vt 0.177577 0.362140
vt 0.259126 0.415850
vt 0.151940 0.461811
vt 0.258081 0.546564
vt 0.135430 0.546564
vt 0.372267 0.488853
vt 0.021775 0.500507
vt 0.036040 0.369983
vt 0.623345 0.610022
vt 0.443943 0.403230
vt 0.607084 0.490475
vt 0.614898 0.482887
vt 0.666247 0.440420
vt 0.678189 0.498118
vt 0.673404 0.106892
vt 0.660571 0.229471
vt 0.603374 0.164863
vt 0.440948 0.136417
vt 0.405731 0.081363
vt 0.695886 0.536768
vt 0.701327 0.461870
vt 0.860487 0.482811
vt 0.125982 0.149438
vt 0.150464 0.264154
vt 0.252654 0.178416
vt 0.340903 0.255781
vt 0.355808 0.356845
vt 0.475573 0.275645
vt 0.022895 0.227789
vt 0.256071 0.306389
vt 0.369373 0.530455
vt 0.177563 0.362140
vt 0.151925 0.461811
vt 0.259112 0.415850
vt 0.135416 0.546564
vt 0.258067 0.546564
vt 0.372252 0.488853
vt 0.021760 0.500507
vt 0.036026 0.369983
vt 0.493911 0.448671
vt 0.443929 0.403230
vt 0.611815 0.417863
vt 0.496935 0.290546
vt 0.440933 0.136417
vt 0.405717 0.081363
vt 0.643988 0.390366
vt 0.569302 0.378236
vt 0.981788 0.498572
vt 0.909732 0.552875
vt 0.763934 0.626780
vt 0.737702 0.369922
vt 0.735178 0.244311
vt 0.742590 0.376081
vt 0.863293 0.407367
vt 0.180055 0.102615
vt 0.180069 0.102615
vt 0.092509 0.878289
vt 0.123192 0.850278
vt 0.173673 0.905041
vt 0.072711 0.794566
vt 0.032103 0.673406
vt 0.119707 0.739608
vt 0.231965 0.863419
vt 0.289752 0.956242
vt 0.144270 0.831032
vt 0.187811 0.844989
vt 0.134342 0.786148
vt 0.351811 0.692108
vt 0.310684 0.724723
vt 0.310684 0.673171
vt 0.269557 0.692108
vt 0.283701 0.637131
vt 0.337667 0.637131
vt 0.186178 0.758590
vt 0.217963 0.795378
vt 0.250493 0.774054
vt 0.208650 0.770471
vt 0.209943 0.729046
vt 0.244130 0.738881
vt 0.261012 0.825369
vt 0.160161 0.714061
vt 0.093896 0.676387
vt 0.292432 0.894750
vt 0.332973 0.920130
vt 0.072297 0.633526
vt 0.345305 0.880951
vt 0.112592 0.624886
vt 0.182949 0.668861
vt 0.308151 0.806918
vt 0.306762 0.741624
vt 0.247589 0.676544
vt 0.358090 0.825980
vt 0.168685 0.617350
vt 0.045398 0.575087
vt 0.388398 0.952262
vt 0.408287 0.787605
vt 0.211688 0.570987
vt 0.529514 0.386501
vt 0.693548 0.584843
s 0
usemtl 
f 1/1/1 9/2/1 12/3/1
f 2/4/2 11/5/2 16/6/2
f 1/1/3 12/3/3 15/7/3
f 2/4/4 16/6/4 13/8/4
f 3/9/5 18/10/5 20/11/5
f 5/12/6 19/13/6 21/14/6
f 21/14/7 22/15/7 6/16/7
f 21/14/8 19/13/8 22/15/8
f 19/13/9 4/17/9 22/15/9
f 20/18/10 21/14/10 6/16/10
f 20/18/11 18/19/11 21/14/11
f 18/19/12 5/12/12 21/14/12
f 13/8/13 19/13/13 5/12/13
f 13/8/14 16/6/14 19/13/14
f 16/6/15 4/17/15 19/13/15
f 15/20/16 18/10/16 3/9/16
f 15/7/17 12/3/17 18/19/17
f 12/3/18 5/12/18 18/19/18
f 16/6/19 17/21/19 4/17/19
f 16/6/20 11/5/20 17/21/20
f 14/22/21 15/20/21 3/9/21
f 14/23/22 37/24/22 40/25/22
f 35/26/23 38/27/23 23/28/23
f 12/3/24 13/8/24 5/12/24
f 12/3/25 9/2/25 13/8/25
f 9/2/26 2/4/26 13/8/26
f 10/29/27 11/5/27 2/4/27
f 9/2/28 10/29/28 2/4/28
f 9/2/29 7/30/29 10/29/29
f 40/31/30 37/32/30 8/33/30
f 23/34/31 27/35/31 26/36/31
f 24/37/32 30/38/32 11/39/32
f 23/34/33 29/40/33 27/35/33
f 24/37/34 28/41/34 30/38/34
f 3/9/35 20/11/35 31/42/35
f 25/43/36 33/44/36 32/45/36
f 33/44/37 6/46/37 22/47/37
f 33/44/38 22/47/38 32/45/38
f 32/45/39 22/47/39 4/48/39
f 20/49/40 6/46/40 33/44/40
f 20/49/41 33/44/41 31/50/41
f 31/50/42 33/44/42 25/43/42
f 28/41/43 25/43/43 32/45/43
f 28/41/44 32/45/44 30/38/44
f 30/38/45 32/45/45 4/48/45
f 29/51/46 3/9/46 31/42/46
f 29/40/47 31/50/47 27/35/47
f 27/35/48 31/50/48 25/43/48
f 30/38/49 4/48/49 17/52/49
f 30/38/50 17/52/50 11/39/50
f 14/22/51 3/9/51 29/51/51
f 39/53/52 37/24/52 14/23/52
f 29/54/53 23/28/53 38/27/53
f 27/35/54 25/43/54 28/41/54
f 27/35/55 28/41/55 26/36/55
f 26/36/56 28/41/56 24/37/56
f 10/55/57 24/37/57 11/39/57
f 26/36/58 24/37/58 10/55/58
f 26/36/59 10/55/59 7/56/59
f 38/27/60 37/57/60 39/58/60
f 34/59/61 1/60/61 8/33/61
f 8/33/62 1/60/62 15/61/62
f 38/27/63 36/62/63 37/57/63
f 38/27/64 35/26/64 42/63/64
f 37/32/65 36/64/65 8/33/65
f 8/33/66 36/64/66 41/65/66
f 29/54/67 38/27/67 39/58/67
f 15/61/68 40/31/68 8/33/68
f 36/62/69 38/27/69 42/63/69
f 34/59/70 8/33/70 41/65/70
f 23/34/71 26/36/71 35/66/71
f 1/1/72 34/67/72 9/2/72
f 36/68/73 43/69/73 41/70/73
f 36/68/74 42/71/74 43/69/74
f 42/71/75 35/72/75 45/73/75
f 41/70/76 44/74/76 34/75/76
f 43/69/77 42/71/77 45/73/77
f 43/69/78 44/74/78 41/70/78
f 43/69/79 46/76/79 49/77/79
f 48/78/80 46/76/80 43/69/80
f 49/79/81 46/80/81 47/81/81
f 48/82/82 47/81/82 46/80/82
f 48/82/83 50/83/83 47/81/83
f 49/79/84 47/81/84 51/84/84
f 51/84/85 47/81/85 50/83/85
f 48/78/86 45/73/86 50/85/86
f 49/77/87 51/86/87 44/74/87
f 53/87/88 51/86/88 54/88/88
f 51/86/89 50/85/89 54/88/89
f 52/89/90 54/88/90 50/85/90
f 53/87/91 54/88/91 52/89/91
f 50/85/92 45/73/92 52/89/92
f 51/86/93 53/87/93 44/74/93
f 53/87/94 52/89/94 55/90/94
f 53/87/95 56/91/95 44/74/95
f 52/89/96 45/73/96 57/92/96
f 45/73/97 35/72/97 59/93/97
f 44/74/98 58/94/98 34/75/98
f 57/92/99 45/73/99 59/93/99
f 56/91/100 58/94/100 44/74/100
f 58/94/101 60/95/101 34/75/101
f 59/93/102 35/72/102 61/96/102
f 60/95/103 58/94/103 62/97/103
f 61/96/104 63/98/104 59/93/104
f 59/93/105 63/98/105 57/92/105
f 58/94/106 56/91/106 62/97/106
f 57/92/107 65/99/107 52/89/107
f 56/91/108 53/87/108 64/100/108
f 55/90/109 52/89/109 65/99/109
f 55/90/110 64/100/110 53/87/110
f 63/98/111 65/99/111 57/92/111
f 62/97/112 56/91/112 64/100/112
f 64/100/113 55/90/113 66/101/113
f 65/99/114 66/102/114 55/90/114
f 64/100/115 67/103/115 62/97/115
f 65/99/116 63/98/116 68/104/116
f 35/72/117 26/105/117 61/96/117
f 34/75/118 60/95/118 9/106/118
f 60/95/119 62/97/119 9/106/119
f 61/96/120 26/105/120 63/98/120
f 7/107/121 9/106/121 62/97/121
f 62/97/122 67/103/122 7/107/122
f 7/108/123 63/98/123 26/105/123
f 63/98/124 7/108/124 68/104/124
f 64/100/125 7/107/125 67/103/125
f 65/99/126 68/104/126 7/108/126
f 64/100/127 66/101/127 7/107/127
f 66/102/128 65/99/128 7/108/128
f 29/109/129 39/53/129 14/23/129
f 15/110/130 14/23/130 40/25/130
f 45/73/80 48/78/80 43/69/80
f 44/74/79 43/69/79 49/77/79
l 8 44
